<svg width="41" height="62" viewBox="0 0 41 62" fill="none" xmlns="http://www.w3.org/2000/svg">
<g clip-path="url(#clip0_910_329)">
<path d="M10.1743 61.0208C15.7882 61.0208 20.3445 56.4645 20.3445 50.8506V40.6804H10.1743C4.56034 40.6804 0.00408936 45.2366 0.00408936 50.8506C0.00408936 56.4645 4.56034 61.0208 10.1743 61.0208Z" fill="#0ACF83"/>
<path d="M0.00408936 30.5107C0.00408936 24.8967 4.56034 20.3405 10.1743 20.3405H20.3445V40.6809H10.1743C4.56034 40.6809 0.00408936 36.1246 0.00408936 30.5107Z" fill="#A259FF"/>
<path d="M0.00543213 10.1702C0.00543213 4.55625 4.56168 0 10.1756 0H20.3458V20.3404H10.1756C4.56168 20.3404 0.00543213 15.7842 0.00543213 10.1702Z" fill="#F24E1E"/>
<path d="M20.3444 -0.000244141H30.5146C36.1285 -0.000244141 40.6848 4.55601 40.6848 10.17C40.6848 15.7839 36.1285 20.3402 30.5146 20.3402H20.3444V-0.000244141Z" fill="#FF7262"/>
<path d="M40.6848 30.5107C40.6848 36.1246 36.1285 40.6809 30.5146 40.6809C24.9006 40.6809 20.3444 36.1246 20.3444 30.5107C20.3444 24.8967 24.9006 20.3405 30.5146 20.3405C36.1285 20.3405 40.6848 24.8967 40.6848 30.5107Z" fill="#1ABCFE"/>
</g>
<defs>
<clipPath id="clip0_910_329">
<rect width="40.689" height="61.0212" fill="white"/>
</clipPath>
</defs>
</svg>
