<svg width="76" height="75" viewBox="0 0 76 75" fill="none" xmlns="http://www.w3.org/2000/svg">
<path fill-rule="evenodd" clip-rule="evenodd" d="M37.9901 0C17.0006 0 0 17.0006 0 37.9901C0 54.8007 10.8747 68.9995 25.9757 74.0332C27.8752 74.3656 28.5875 73.2259 28.5875 72.2287C28.5875 71.3264 28.5401 68.3347 28.5401 65.153C18.995 66.91 16.5257 62.8261 15.7659 60.6892C15.3385 59.5969 13.4865 56.2253 11.8719 55.3231C10.5422 54.6107 8.64274 52.8537 11.8244 52.8062C14.8161 52.7587 16.9531 55.5605 17.6654 56.7002C21.0845 62.4462 26.5456 60.8316 28.73 59.8344C29.0624 57.365 30.0597 55.703 31.1519 54.7532C22.6991 53.8035 13.8664 50.5268 13.8664 35.9956C13.8664 31.8642 15.3385 28.4451 17.7604 25.7858C17.3805 24.836 16.0508 20.942 18.1403 15.7184C18.1403 15.7184 21.3219 14.7212 28.5875 19.6124C31.6267 18.7576 34.8559 18.3302 38.0851 18.3302C41.3142 18.3302 44.5434 18.7576 47.5826 19.6124C54.8482 14.6737 58.0299 15.7184 58.0299 15.7184C60.1193 20.942 58.7897 24.836 58.4098 25.7858C60.8316 28.4451 62.3037 31.8167 62.3037 35.9956C62.3037 50.5743 53.4236 53.8035 44.9708 54.7532C46.3479 55.9404 47.5351 58.2198 47.5351 61.7814C47.5351 66.8626 47.4876 70.9465 47.4876 72.2287C47.4876 73.2259 48.1999 74.4131 50.0994 74.0332C65.1055 68.9995 75.9802 54.7532 75.9802 37.9901C75.9802 17.0006 58.9796 0 37.9901 0Z" fill="white"/>
</svg>
