<svg width="131" height="129" viewBox="0 0 131 129" fill="none" xmlns="http://www.w3.org/2000/svg">
<g clip-path="url(#clip0_910_302)">
<path d="M120.45 99.016C113.305 99.016 107.691 99.5263 103.097 101.568C101.566 102.078 99.5244 102.078 99.5244 103.609L101.056 106.672C102.076 108.203 103.608 110.755 105.649 112.286L111.263 116.369L121.981 121.473L127.596 126.066L130.658 128.108L129.127 125.046L126.575 122.494C124.023 118.921 120.961 115.859 117.388 113.307C114.326 111.776 108.201 108.713 107.18 105.651H106.67L112.794 104.12L121.981 102.589L126.065 101.568V100.547L121.471 95.4432C117.388 91.3602 112.284 87.7874 107.18 84.2147L97.9933 80.1316C96.9725 79.6213 94.9309 79.1109 94.4206 78.0901L90.8478 71.4551L83.192 56.1435L79.109 45.9357C69.922 30.6241 59.7143 21.4372 44.4027 12.7606C41.3403 10.7191 37.2573 10.2087 33.1742 9.18791L26.5391 8.67752L22.456 5.6152C17.3522 2.55288 4.08212 -4.59253 0.509414 4.59443C-2.04252 10.2087 4.08212 15.8229 6.12367 18.8853L10.7171 25.5203L12.2483 30.1138C13.7795 34.1969 14.8002 38.7903 16.8418 42.363L19.9041 47.4669C20.9249 48.4877 21.9457 48.9981 22.456 50.5292C20.9249 52.5708 20.9249 55.1227 20.4145 57.1642C16.8418 67.372 18.3729 79.6213 22.9664 87.2771C23.9872 89.3186 27.5599 94.4225 32.1534 92.3809C36.2365 90.8498 35.2157 85.7459 36.2365 81.1524L36.7469 79.1109L40.83 86.2563C43.3819 90.8498 47.9754 95.4432 52.0585 98.5056C54.1 100.037 56.1416 102.589 58.6935 103.609L56.6519 101.568L52.0585 96.464C47.9754 91.3602 44.9131 85.7459 41.8507 80.1316L38.278 71.4551L36.7469 68.3928C35.2157 70.4343 33.1742 71.9655 32.1534 74.5174C30.6222 78.0901 30.6222 83.194 30.1118 87.7874H29.6015C26.5391 87.2771 25.5184 84.2147 24.4976 81.6628C21.9457 75.5382 21.4353 65.3304 23.9872 58.185C24.4976 56.1435 27.0495 50.5292 26.0287 48.4877C25.5184 46.9565 23.9872 45.9357 22.9664 44.915L19.3937 38.7903L14.2899 23.4787L9.69637 16.8437C8.16521 14.2918 6.12367 12.7606 4.59251 9.69829C4.08212 8.67752 3.57173 7.14636 4.59251 6.12559L5.61328 5.10481C6.63405 4.08404 10.2068 5.10481 11.2275 5.6152C14.2899 7.14636 17.3522 8.16713 19.9041 10.2087L23.9872 13.271H26.0287C29.0911 13.7814 32.1534 13.271 34.7053 14.2918C39.2988 15.8229 43.8923 17.8645 47.465 20.4164C59.2039 27.5618 68.9012 38.2799 75.0259 50.5292C76.557 52.5708 76.557 54.6123 77.5778 56.6539L83.7024 69.9239C85.744 74.007 87.2751 78.0901 89.8271 81.6628C91.3582 83.7044 96.9725 84.7251 99.014 85.7459L105.139 87.7874L114.326 93.9121C115.346 94.9329 119.94 97.4848 120.45 99.016Z" fill="#00546B"/>
<path d="M29.6019 21.9466L26.0292 22.457L29.0915 26.0297L31.133 30.6232V30.1128C32.6642 29.6024 33.1746 28.0712 33.1746 26.0297L32.1538 23.9881L29.6019 21.9466Z" fill="#00546B"/>
</g>
<defs>
<clipPath id="clip0_910_302">
<rect width="130.659" height="128.617" fill="white"/>
</clipPath>
</defs>
</svg>
