<svg width="71" height="61" viewBox="0 0 71 61" fill="none" xmlns="http://www.w3.org/2000/svg">
<path d="M68.214 46.8365C64.4244 48.8162 44.7976 56.8479 40.6121 59.0538C36.4265 61.2597 34.1075 61.2031 30.827 59.6194C27.5464 58.0357 6.67529 49.6646 2.88568 47.8546C1.01916 46.9497 0.0576172 46.2144 0.0576172 45.4791V38.2958C0.0576172 38.2958 27.207 32.3568 31.6188 30.8297C36.0306 29.246 37.5012 29.1894 41.2342 30.5469C44.9673 31.9044 67.309 35.9202 70.9855 37.2777V44.3478C70.9855 45.0831 70.1371 45.875 68.214 46.8365Z" fill="#A41E11"/>
<path d="M68.2137 39.7098C64.4241 41.6894 44.7974 49.7211 40.6118 51.927C36.4263 54.1329 34.1073 54.0763 30.8267 52.4926C27.5462 50.9089 6.67503 42.4813 2.88542 40.6713C-0.847622 38.8614 -0.960745 37.617 2.71574 36.203C6.39222 34.7324 27.1502 26.5876 31.562 25.0604C35.9738 23.4767 37.4444 23.4201 41.1774 24.7776C44.9105 26.1351 64.4241 33.884 68.1006 35.2414C71.8902 36.5989 72.0033 37.7301 68.2137 39.7098Z" fill="#D82C20"/>
<path d="M68.214 35.185C64.4244 37.1646 44.7976 45.1963 40.6121 47.4022C36.4265 49.5515 34.1075 49.5515 30.827 47.9678C27.5464 46.3841 6.67529 37.9565 2.88568 36.1465C1.01916 35.2415 0.0576172 34.5062 0.0576172 33.7709V26.5877C0.0576172 26.5877 27.207 20.6487 31.6188 19.1216C36.0306 17.5378 37.5012 17.4813 41.2342 18.8388C44.9673 20.1962 67.309 24.2121 70.9855 25.5695V32.6397C70.9855 33.375 70.1371 34.1669 68.214 35.185Z" fill="#A41E11"/>
<path d="M68.2136 28.0018C64.424 29.9814 44.7972 38.0131 40.6117 40.219C36.4261 42.3683 34.1071 42.3683 30.8266 40.7846C27.546 39.2009 6.67488 30.7733 2.88527 28.9633C-0.904338 27.1533 -0.9609 25.909 2.71559 24.495C6.39207 23.0244 27.1501 14.8795 31.5618 13.3524C35.9736 11.7687 37.4442 11.7121 41.1773 13.0696C44.9103 14.4271 64.424 22.176 68.1005 23.5334C71.8901 24.8909 72.0032 26.0221 68.2136 28.0018Z" fill="#D82C20"/>
<path d="M68.2139 23.0242C64.4243 25.0038 44.7975 33.0355 40.612 35.2414C36.4265 37.3907 34.1074 37.3907 30.8269 35.807C27.5463 34.2799 6.67521 25.8522 2.8856 24.0423C1.01908 23.1373 0.000976562 22.402 0.000976562 21.6667V14.4834C0.000976562 14.4834 27.1504 8.54446 31.5622 7.01731C35.974 5.43359 37.4446 5.37703 41.1776 6.7345C44.9107 8.09197 67.2524 12.1078 70.9289 13.4653V20.5355C70.9854 21.2708 70.137 22.0061 68.2139 23.0242Z" fill="#A41E11"/>
<path d="M68.2136 15.8408C64.424 17.8205 44.7972 25.8522 40.6117 28.0581C36.4261 30.2074 34.1071 30.2074 30.8266 28.6237C27.546 27.04 6.67488 18.6689 2.88527 16.8589C-0.904338 15.049 -0.9609 13.8046 2.71559 12.3906C6.39207 10.92 27.1501 2.77518 31.5618 1.24802C35.9736 -0.335694 37.4442 -0.392255 41.1773 0.965216C44.9103 2.32269 64.424 10.0716 68.1005 11.4291C71.8901 12.7865 72.0032 13.9178 68.2136 15.8408Z" fill="#D82C20"/>
<path d="M44.7971 8.94058L38.6885 9.61931L37.2744 12.8999L35.0685 9.22339L27.9984 8.60121L33.2586 6.67813L31.6749 3.73694L36.6523 5.66002L41.2903 4.13287L40.0459 7.18718L44.7971 8.94058ZM36.9351 25.004L25.4531 20.2528L41.9125 17.7641L36.9351 25.004Z" fill="white"/>
<path d="M21.0414 17.5941C25.8833 17.5941 29.8084 16.0747 29.8084 14.2004C29.8084 12.3262 25.8833 10.8068 21.0414 10.8068C16.1995 10.8068 12.2744 12.3262 12.2744 14.2004C12.2744 16.0747 16.1995 17.5941 21.0414 17.5941Z" fill="white"/>
<path d="M52.0942 9.84521L61.8228 13.6914L52.0942 17.5376V9.84521Z" fill="#7A0C00"/>
<path d="M41.3472 14.1439L52.0938 9.84521V17.5376L51.0191 17.99L41.3472 14.1439Z" fill="#AD2115"/>
</svg>
