<svg width="68" height="68" viewBox="0 0 68 68" fill="none" xmlns="http://www.w3.org/2000/svg">
<g clip-path="url(#clip0_910_308)">
<path d="M30.6646 0.145471C24.0008 0.875568 17.7352 3.45082 12.6776 7.52609C10.9652 8.90664 8.16431 11.7872 6.92979 13.4332C3.41204 18.1324 1.16865 23.4953 0.319087 29.2697C0.027048 31.2211 -0.0658735 34.9512 0.119969 36.9026C0.677498 42.6504 2.50938 47.9602 5.49614 52.4868C10.9918 60.8365 19.3945 66.1861 29.2708 67.6463C31.2221 67.9383 34.9522 68.0313 36.9036 67.8454C42.6515 67.2879 47.9613 65.456 52.4879 62.4692C60.8375 56.9736 66.1871 48.5708 67.6473 38.6946C67.9394 36.7433 68.0323 33.0131 67.8465 31.0618C67.1695 24.1059 64.6871 17.9466 60.4393 12.6766C59.0587 10.9642 56.1782 8.16327 54.5321 6.92874C49.833 3.411 44.5099 1.19416 38.6957 0.318039C37.0894 0.0790982 32.231 -0.0270978 30.6646 0.145471ZM42.7311 31.314C47.3374 39.3716 51.1073 45.9823 51.1073 46.0089C51.1073 46.0354 43.5541 46.062 34.3151 46.062C25.076 46.062 17.5228 46.0354 17.5228 45.9956C17.5228 45.8894 34.2885 16.5793 34.3283 16.6324C34.3416 16.6457 38.1381 23.2564 42.7311 31.314Z" fill="black"/>
<path d="M34.1554 15.2574L51.6658 45.5866H16.645L34.1554 15.2574Z" fill="white"/>
</g>
<defs>
<clipPath id="clip0_910_308">
<rect width="67.9654" height="67.9654" fill="white"/>
</clipPath>
</defs>
</svg>
